<svg width="48" height="32" viewBox="0 0 48 32" fill="none" xmlns="http://www.w3.org/2000/svg">
<rect width="48" height="32" rx="4" fill="black"/>
<path d="M24 8C15.7 8 9 14.7 9 23C9 25.1 9.4 27.1 10.2 28.9C11.3 31.2 13.1 33.1 15.4 34.3C17.7 35.5 20.3 36.1 23 36.1C31.3 36.1 38 29.4 38 21.1C38 18.9 37.6 16.9 36.8 15.1C35.7 12.8 33.9 10.9 31.6 9.7C29.3 8.5 26.7 7.9 24 7.9V8Z" fill="white"/>
<path d="M20.5 13.5C19.1 13.5 18 14.6 18 16C18 17.4 19.1 18.5 20.5 18.5C21.9 18.5 23 17.4 23 16C23 14.6 21.9 13.5 20.5 13.5Z" fill="black"/>
<path d="M27.5 13.5C26.1 13.5 25 14.6 25 16C25 17.4 26.1 18.5 27.5 18.5C28.9 18.5 30 17.4 30 16C30 14.6 28.9 13.5 27.5 13.5Z" fill="black"/>
<path d="M20.5 20C19.1 20 18 21.1 18 22.5C18 23.9 19.1 25 20.5 25C21.9 25 23 23.9 23 22.5C23 21.1 21.9 20 20.5 20Z" fill="black"/>
<path d="M27.5 20C26.1 20 25 21.1 25 22.5C25 23.9 26.1 25 27.5 25C28.9 25 30 23.9 30 22.5C30 21.1 28.9 20 27.5 20Z" fill="black"/>
<text x="19" y="11.5" font-family="SF Pro Display, Arial, sans-serif" font-size="3" font-weight="500" fill="white">Pay</text>
</svg>
