<svg width="48" height="32" viewBox="0 0 48 32" fill="none" xmlns="http://www.w3.org/2000/svg">
<rect width="48" height="32" rx="4" fill="white"/>
<rect width="48" height="32" rx="4" stroke="#E5E7EB"/>
<path d="M12.7 8.7C11.8 8.7 11.1 9.4 11.1 10.3V12.1C11.1 13 11.8 13.7 12.7 13.7H15.8C16.7 13.7 17.4 13 17.4 12.1V10.3C17.4 9.4 16.7 8.7 15.8 8.7H12.7ZM12.7 9.5H15.8C16.3 9.5 16.6 9.8 16.6 10.3V12.1C16.6 12.6 16.3 12.9 15.8 12.9H12.7C12.2 12.9 11.9 12.6 11.9 12.1V10.3C11.9 9.8 12.2 9.5 12.7 9.5Z" fill="#003087"/>
<path d="M30.7 8.7C29.8 8.7 29.1 9.4 29.1 10.3V12.1C29.1 13 29.8 13.7 30.7 13.7H33.8C34.7 13.7 35.4 13 35.4 12.1V10.3C35.4 9.4 34.7 8.7 33.8 8.7H30.7ZM30.7 9.5H33.8C34.3 9.5 34.6 9.8 34.6 10.3V12.1C34.6 12.6 34.3 12.9 33.8 12.9H30.7C30.2 12.9 29.9 12.6 29.9 12.1V10.3C29.9 9.8 30.2 9.5 30.7 9.5Z" fill="#009CDE"/>
<path d="M13.2 15.2C13.2 15.2 13.2 15.2 13.2 15.2C12.8 15.2 12.4 15.6 12.4 16C12.4 16.4 12.8 16.8 13.2 16.8C13.6 16.8 14 16.4 14 16C14 15.6 13.6 15.2 13.2 15.2Z" fill="#003087"/>
<path d="M15.4 15.2C15 15.2 14.6 15.6 14.6 16C14.6 16.4 15 16.8 15.4 16.8C15.8 16.8 16.2 16.4 16.2 16C16.2 15.6 15.8 15.2 15.4 15.2Z" fill="#003087"/>
<path d="M31.2 15.2C30.8 15.2 30.4 15.6 30.4 16C30.4 16.4 30.8 16.8 31.2 16.8C31.6 16.8 32 16.4 32 16C32 15.6 31.6 15.2 31.2 15.2Z" fill="#009CDE"/>
<path d="M33.4 15.2C33 15.2 32.6 15.6 32.6 16C32.6 16.4 33 16.8 33.4 16.8C33.8 16.8 34.2 16.4 34.2 16C34.2 15.6 33.8 15.2 33.4 15.2Z" fill="#009CDE"/>
<path d="M13.2 18.2C12.8 18.2 12.4 18.6 12.4 19C12.4 19.4 12.8 19.8 13.2 19.8C13.6 19.8 14 19.4 14 19C14 18.6 13.6 18.2 13.2 18.2Z" fill="#003087"/>
<path d="M15.4 18.2C15 18.2 14.6 18.6 14.6 19C14.6 19.4 15 19.8 15.4 19.8C15.8 19.8 16.2 19.4 16.2 19C16.2 18.6 15.8 18.2 15.4 18.2Z" fill="#003087"/>
<path d="M31.2 18.2C30.8 18.2 30.4 18.6 30.4 19C30.4 19.4 30.8 19.8 31.2 19.8C31.6 19.8 32 19.4 32 19C32 18.6 31.6 18.2 31.2 18.2Z" fill="#009CDE"/>
<path d="M33.4 18.2C33 18.2 32.6 18.6 32.6 19C32.6 19.4 33 19.8 33.4 19.8C33.8 19.8 34.2 19.4 34.2 19C34.2 18.6 33.8 18.2 33.4 18.2Z" fill="#009CDE"/>
<path d="M13.2 21.2C12.8 21.2 12.4 21.6 12.4 22C12.4 22.4 12.8 22.8 13.2 22.8C13.6 22.8 14 22.4 14 22C14 21.6 13.6 21.2 13.2 21.2Z" fill="#003087"/>
<path d="M15.4 21.2C15 21.2 14.6 21.6 14.6 22C14.6 22.4 15 22.8 15.4 22.8C15.8 22.8 16.2 22.4 16.2 22C16.2 21.6 15.8 21.2 15.4 21.2Z" fill="#003087"/>
<path d="M31.2 21.2C30.8 21.2 30.4 21.6 30.4 22C30.4 22.4 30.8 22.8 31.2 22.8C31.6 22.8 32 22.4 32 22C32 21.6 31.6 21.2 31.2 21.2Z" fill="#009CDE"/>
<path d="M33.4 21.2C33 21.2 32.6 21.6 32.6 22C32.6 22.4 33 22.8 33.4 22.8C33.8 22.8 34.2 22.4 34.2 22C34.2 21.6 33.8 21.2 33.4 21.2Z" fill="#009CDE"/>
<path d="M20.8 14.8H21.6V17.2H20.8V14.8Z" fill="#003087"/>
<path d="M22 14.8H24.4C25 14.8 25.6 15.3 25.6 16C25.6 16.7 25 17.2 24.4 17.2H22V14.8ZM22.8 15.6V16.4H24.4C24.6 16.4 24.8 16.3 24.8 16C24.8 15.7 24.6 15.6 24.4 15.6H22.8Z" fill="#003087"/>
<text x="20.5" y="11" font-family="Arial, sans-serif" font-size="4" font-weight="bold" fill="#003087">PayPal</text>
</svg>
