<svg width="48" height="32" viewBox="0 0 48 32" fill="none" xmlns="http://www.w3.org/2000/svg">
<rect width="48" height="32" rx="4" fill="#1A1F71"/>
<path d="M18.5 23L21.2 9H25.1L22.4 23H18.5Z" fill="white"/>
<path d="M33.9 9.4C32.9 9 31.4 8.6 29.5 8.6C25.7 8.6 23 10.7 22.9 13.6C22.9 15.8 24.9 17 26.4 17.7C27.9 18.4 28.5 18.9 28.5 19.5C28.5 20.4 27.4 20.8 26.4 20.8C24.9 20.8 24.1 20.5 22.9 19.9L22.4 19.7L21.9 22.5C23.2 23.1 25.5 23.6 27.9 23.6C32 23.6 34.7 21.6 34.7 18.4C34.7 16.7 33.6 15.4 31.1 14.3C29.7 13.6 28.9 13.1 28.9 12.4C28.9 11.8 29.6 11.2 31.2 11.2C32.6 11.2 33.6 11.5 34.4 11.8L34.8 12L35.3 9.3C34.6 9 33.4 8.6 31.9 8.6C28.1 8.6 25.4 10.7 25.3 13.6C25.3 15.8 27.3 17 28.8 17.7C30.3 18.4 30.9 18.9 30.9 19.5C30.9 20.4 29.8 20.8 28.8 20.8C27.3 20.8 26.5 20.5 25.3 19.9L24.8 19.7L24.3 22.5C25.6 23.1 27.9 23.6 30.3 23.6C34.4 23.6 37.1 21.6 37.1 18.4C37.1 16.7 36 15.4 33.5 14.3C32.1 13.6 31.3 13.1 31.3 12.4C31.3 11.8 32 11.2 33.6 11.2C35 11.2 36 11.5 36.8 11.8L37.2 12L37.7 9.3C37 9 35.8 8.6 34.3 8.6" fill="white"/>
<path d="M37.1 9H40.6C41.6 9 42.4 9.3 42.8 10.3L47.9 23H43.7L42.9 20.8H37.5L36.9 23H33.3L37.1 9ZM41.5 17.7L39.9 13.7L38.8 17.7H41.5Z" fill="white"/>
<path d="M16.3 9L12.6 20L12.1 17.7C11.4 15.4 9.3 12.9 6.9 11.6L10.4 23H14.7L20.5 9H16.3Z" fill="white"/>
<path d="M7.7 9H0.5L0.4 9.4C5.9 10.7 9.7 14.1 11.1 17.7L9.5 10.3C9.2 9.4 8.5 9 7.7 9Z" fill="#F7981D"/>
</svg>
